<mxfile host="app.diagrams.net" modified="2023-04-20T12:05:55.081Z" agent="Mozilla/5.0 (Windows NT 10.0; Win64; x64) AppleWebKit/537.36 (KHTML, like Gecko) Chrome/111.0.0.0 Safari/537.36" etag="bMAYYFNw4OQH6rgfNVDB" version="21.2.1" type="device">
  <diagram name="第 1 页" id="9xo9PeXRYIfZp4Qu1FNM">
    <mxGraphModel dx="2487" dy="1299" grid="0" gridSize="10" guides="1" tooltips="1" connect="1" arrows="1" fold="1" page="0" pageScale="1" pageWidth="827" pageHeight="1169" math="0" shadow="0">
      <root>
        <mxCell id="0" />
        <mxCell id="1" parent="0" />
        <mxCell id="SBRpclSS-yPXKx1Pzvzx-42" value="" style="rounded=1;whiteSpace=wrap;html=1;fillColor=none;dashed=1;glass=0;shadow=0;strokeColor=#1C9935;strokeWidth=2;" vertex="1" parent="1">
          <mxGeometry x="929.5" y="-287" width="215" height="550.5" as="geometry" />
        </mxCell>
        <mxCell id="udtNerkud9cYVK2dS0P0-2" value="&lt;h6&gt;&lt;font face=&quot;Comic Sans MS&quot; style=&quot;font-size: 14px;&quot;&gt;&amp;nbsp;SqlSessionFactoryBuilder&lt;/font&gt;&lt;/h6&gt;" style="text;html=1;strokeColor=none;fillColor=none;align=center;verticalAlign=middle;whiteSpace=wrap;rounded=1;" parent="1" vertex="1">
          <mxGeometry x="-665" y="-23" width="188" height="42" as="geometry" />
        </mxCell>
        <mxCell id="udtNerkud9cYVK2dS0P0-3" value="&lt;h6 style=&quot;font-size: 14px;&quot;&gt;&lt;font style=&quot;font-size: 14px;&quot; face=&quot;Comic Sans MS&quot;&gt;&lt;font style=&quot;font-size: 14px;&quot;&gt;&amp;nbsp;&lt;/font&gt;XMLConfigBuilder&lt;/font&gt;&lt;/h6&gt;" style="text;html=1;strokeColor=none;fillColor=none;align=center;verticalAlign=middle;whiteSpace=wrap;rounded=1;" parent="1" vertex="1">
          <mxGeometry x="-245" y="-27" width="135" height="57" as="geometry" />
        </mxCell>
        <mxCell id="udtNerkud9cYVK2dS0P0-5" value="" style="endArrow=open;html=1;curved=1;strokeColor=default;endFill=0;" parent="1" edge="1">
          <mxGeometry width="50" height="50" relative="1" as="geometry">
            <mxPoint x="-450" y="9" as="sourcePoint" />
            <mxPoint x="-263" y="9" as="targetPoint" />
          </mxGeometry>
        </mxCell>
        <mxCell id="SBRpclSS-yPXKx1Pzvzx-1" value="&lt;font style=&quot;font-size: 11px;&quot; face=&quot;Comic Sans MS&quot;&gt;InputStream 加载配置 mybatis-config.xml&lt;/font&gt;" style="text;html=1;strokeColor=none;fillColor=none;align=center;verticalAlign=middle;whiteSpace=wrap;rounded=1;" vertex="1" parent="1">
          <mxGeometry x="-445" y="-36.5" width="168" height="30" as="geometry" />
        </mxCell>
        <mxCell id="SBRpclSS-yPXKx1Pzvzx-2" value="" style="endArrow=open;html=1;curved=1;strokeColor=default;endFill=0;" edge="1" parent="1">
          <mxGeometry width="50" height="50" relative="1" as="geometry">
            <mxPoint x="-77" y="6" as="sourcePoint" />
            <mxPoint x="110" y="6" as="targetPoint" />
          </mxGeometry>
        </mxCell>
        <mxCell id="SBRpclSS-yPXKx1Pzvzx-39" style="edgeStyle=orthogonalEdgeStyle;rounded=1;orthogonalLoop=1;jettySize=auto;html=1;curved=1;dashed=1;dashPattern=8 8;endArrow=diamond;endFill=1;" edge="1" parent="1" source="SBRpclSS-yPXKx1Pzvzx-3" target="SBRpclSS-yPXKx1Pzvzx-36">
          <mxGeometry relative="1" as="geometry" />
        </mxCell>
        <mxCell id="SBRpclSS-yPXKx1Pzvzx-3" value="&lt;font face=&quot;Comic Sans MS&quot;&gt;&lt;font style=&quot;font-size: 11px;&quot;&gt;parse &amp;lt;&lt;/font&gt;configuration&amp;gt;&amp;nbsp;&lt;span style=&quot;font-size: 11px; background-color: initial;&quot;&gt;标签&lt;/span&gt;&lt;/font&gt;" style="text;html=1;strokeColor=none;fillColor=none;align=center;verticalAlign=middle;whiteSpace=wrap;rounded=1;" vertex="1" parent="1">
          <mxGeometry x="-93" y="-32" width="219" height="30" as="geometry" />
        </mxCell>
        <mxCell id="SBRpclSS-yPXKx1Pzvzx-40" style="edgeStyle=orthogonalEdgeStyle;rounded=1;orthogonalLoop=1;jettySize=auto;html=1;entryX=0;entryY=0.5;entryDx=0;entryDy=0;curved=1;endArrow=open;endFill=0;" edge="1" parent="1" source="SBRpclSS-yPXKx1Pzvzx-10" target="SBRpclSS-yPXKx1Pzvzx-18">
          <mxGeometry relative="1" as="geometry" />
        </mxCell>
        <mxCell id="SBRpclSS-yPXKx1Pzvzx-41" style="edgeStyle=orthogonalEdgeStyle;rounded=1;orthogonalLoop=1;jettySize=auto;html=1;entryX=0;entryY=0.5;entryDx=0;entryDy=0;curved=1;endArrow=open;endFill=0;" edge="1" parent="1" source="SBRpclSS-yPXKx1Pzvzx-10" target="SBRpclSS-yPXKx1Pzvzx-16">
          <mxGeometry relative="1" as="geometry" />
        </mxCell>
        <mxCell id="SBRpclSS-yPXKx1Pzvzx-10" value="&lt;h6&gt;&lt;font face=&quot;Comic Sans MS&quot;&gt;解析mapperElement&lt;/font&gt;&lt;/h6&gt;" style="text;html=1;strokeColor=none;fillColor=none;align=center;verticalAlign=middle;whiteSpace=wrap;rounded=0;" vertex="1" parent="1">
          <mxGeometry x="143" y="-19" width="123" height="41" as="geometry" />
        </mxCell>
        <mxCell id="SBRpclSS-yPXKx1Pzvzx-53" style="edgeStyle=orthogonalEdgeStyle;rounded=1;orthogonalLoop=1;jettySize=auto;html=1;curved=1;endArrow=open;endFill=0;" edge="1" parent="1" source="SBRpclSS-yPXKx1Pzvzx-22" target="SBRpclSS-yPXKx1Pzvzx-51">
          <mxGeometry relative="1" as="geometry" />
        </mxCell>
        <mxCell id="SBRpclSS-yPXKx1Pzvzx-22" value="&lt;h6&gt;&lt;font face=&quot;Comic Sans MS&quot;&gt;XMLMapperBuilder&lt;br&gt;&lt;/font&gt;&lt;font face=&quot;Comic Sans MS&quot;&gt;（XML定义）&lt;/font&gt;&lt;/h6&gt;" style="text;html=1;align=center;verticalAlign=middle;resizable=0;points=[];autosize=1;strokeColor=none;fillColor=none;" vertex="1" parent="1">
          <mxGeometry x="991.5" y="-116.5" width="126" height="80" as="geometry" />
        </mxCell>
        <mxCell id="SBRpclSS-yPXKx1Pzvzx-24" value="&lt;h6&gt;&lt;font face=&quot;Comic Sans MS&quot;&gt;&amp;nbsp;return SqlSessionFactory&lt;/font&gt;&lt;/h6&gt;" style="text;html=1;strokeColor=none;fillColor=none;align=center;verticalAlign=middle;whiteSpace=wrap;rounded=0;" vertex="1" parent="1">
          <mxGeometry x="1810" y="-22" width="164" height="41" as="geometry" />
        </mxCell>
        <mxCell id="SBRpclSS-yPXKx1Pzvzx-48" style="edgeStyle=orthogonalEdgeStyle;rounded=1;orthogonalLoop=1;jettySize=auto;html=1;curved=1;entryX=-0.002;entryY=0.55;entryDx=0;entryDy=0;entryPerimeter=0;endArrow=open;endFill=0;" edge="1" parent="1" source="SBRpclSS-yPXKx1Pzvzx-25" target="SBRpclSS-yPXKx1Pzvzx-28">
          <mxGeometry relative="1" as="geometry">
            <Array as="points">
              <mxPoint x="1340" y="91" />
              <mxPoint x="1340" y="1" />
            </Array>
          </mxGeometry>
        </mxCell>
        <mxCell id="SBRpclSS-yPXKx1Pzvzx-25" value="&lt;h6 style=&quot;text-align: center;&quot;&gt;&lt;font face=&quot;Comic Sans MS&quot;&gt;&lt;span style=&quot;background-color: initial;&quot;&gt;MapperAnnotationBuilder&lt;br&gt;&lt;/span&gt;&lt;span style=&quot;background-color: initial;&quot;&gt;（注解定义）&lt;/span&gt;&lt;/font&gt;&lt;/h6&gt;" style="text;whiteSpace=wrap;html=1;" vertex="1" parent="1">
          <mxGeometry x="991.5" y="61" width="153" height="55" as="geometry" />
        </mxCell>
        <mxCell id="SBRpclSS-yPXKx1Pzvzx-27" value="&lt;font face=&quot;Comic Sans MS&quot;&gt;解析Mapper定义&lt;br&gt;如：namespace、resultMap、sql&lt;br&gt;cache、select|insert|update|delete&lt;/font&gt;" style="text;html=1;strokeColor=none;fillColor=none;align=center;verticalAlign=middle;whiteSpace=wrap;rounded=0;" vertex="1" parent="1">
          <mxGeometry x="882" y="-292" width="310" height="84" as="geometry" />
        </mxCell>
        <mxCell id="SBRpclSS-yPXKx1Pzvzx-49" style="edgeStyle=orthogonalEdgeStyle;rounded=1;orthogonalLoop=1;jettySize=auto;html=1;endArrow=open;endFill=0;" edge="1" parent="1" source="SBRpclSS-yPXKx1Pzvzx-28" target="SBRpclSS-yPXKx1Pzvzx-24">
          <mxGeometry relative="1" as="geometry">
            <Array as="points">
              <mxPoint x="1776" y="-2" />
              <mxPoint x="1776" y="-2" />
            </Array>
          </mxGeometry>
        </mxCell>
        <mxCell id="SBRpclSS-yPXKx1Pzvzx-28" value="&lt;h6&gt;&lt;font face=&quot;Comic Sans MS&quot;&gt;&amp;nbsp;Configuration&lt;/font&gt;&lt;/h6&gt;" style="text;html=1;align=center;verticalAlign=middle;resizable=0;points=[];autosize=1;strokeColor=none;fillColor=none;" vertex="1" parent="1">
          <mxGeometry x="1536" y="-35" width="100" height="65" as="geometry" />
        </mxCell>
        <mxCell id="SBRpclSS-yPXKx1Pzvzx-32" value="" style="group" vertex="1" connectable="0" parent="1">
          <mxGeometry x="374" y="-322" width="391" height="209" as="geometry" />
        </mxCell>
        <mxCell id="SBRpclSS-yPXKx1Pzvzx-17" value="" style="rounded=1;whiteSpace=wrap;html=1;fillColor=none;dashed=1;glass=0;shadow=0;strokeColor=#1C9935;strokeWidth=2;" vertex="1" parent="SBRpclSS-yPXKx1Pzvzx-32">
          <mxGeometry width="391" height="209" as="geometry" />
        </mxCell>
        <mxCell id="SBRpclSS-yPXKx1Pzvzx-11" value="&lt;div style=&quot;&quot;&gt;&lt;font style=&quot;font-size: 12px;&quot;&gt;&lt;i style=&quot;&quot;&gt;&amp;nbsp; &amp;nbsp; &amp;lt;!-- 使用相对于类路径的资源引用 --&amp;gt;&lt;/i&gt;&lt;/font&gt;&lt;/div&gt;&lt;div style=&quot;&quot;&gt;&lt;font style=&quot;font-size: 12px;&quot;&gt;&lt;b&gt;&amp;nbsp; &amp;nbsp; &amp;lt;mapper resource=&quot;org/mybatis/builder/AuthorMapper.xml&quot;/&amp;gt;&lt;/b&gt;&lt;/font&gt;&lt;/div&gt;&lt;div style=&quot;&quot;&gt;&lt;font style=&quot;font-size: 12px;&quot;&gt;&lt;i style=&quot;&quot;&gt;&amp;nbsp; &amp;nbsp; &amp;lt;!-- 使用完全限定资源定位符（URL） --&amp;gt;&lt;/i&gt;&lt;/font&gt;&lt;/div&gt;&lt;div style=&quot;&quot;&gt;&lt;font style=&quot;font-size: 13px;&quot;&gt;&lt;b&gt;&amp;nbsp; &amp;nbsp; &amp;lt;mapper url=&quot;file:///var/mappers/AuthorMapper.xml&quot;/&amp;gt;&lt;/b&gt;&lt;/font&gt;&lt;/div&gt;" style="text;html=1;align=left;verticalAlign=middle;resizable=0;points=[];autosize=1;strokeColor=none;fillColor=none;" vertex="1" parent="SBRpclSS-yPXKx1Pzvzx-32">
          <mxGeometry y="13" width="384" height="71" as="geometry" />
        </mxCell>
        <mxCell id="SBRpclSS-yPXKx1Pzvzx-18" value="使用XML配置映射" style="rounded=1;whiteSpace=wrap;html=1;fillColor=#d5e8d4;strokeColor=none;" vertex="1" parent="SBRpclSS-yPXKx1Pzvzx-32">
          <mxGeometry x="25" y="118" width="175" height="89" as="geometry" />
        </mxCell>
        <mxCell id="SBRpclSS-yPXKx1Pzvzx-33" value="" style="group" vertex="1" connectable="0" parent="1">
          <mxGeometry x="374" y="100" width="391" height="209" as="geometry" />
        </mxCell>
        <mxCell id="SBRpclSS-yPXKx1Pzvzx-30" value="" style="rounded=1;whiteSpace=wrap;html=1;fillColor=none;dashed=1;glass=0;shadow=0;strokeColor=#1C9935;strokeWidth=2;" vertex="1" parent="SBRpclSS-yPXKx1Pzvzx-33">
          <mxGeometry width="391" height="209" as="geometry" />
        </mxCell>
        <mxCell id="SBRpclSS-yPXKx1Pzvzx-12" value="&lt;div style=&quot;&quot;&gt;&lt;div style=&quot;&quot;&gt;&lt;i&gt;&amp;nbsp; &amp;nbsp; &amp;lt;!-- 使用映射器接口实现类的完全限定类名 --&amp;gt;&lt;/i&gt;&lt;/div&gt;&lt;div style=&quot;&quot;&gt;&lt;b style=&quot;&quot;&gt;&amp;nbsp; &amp;nbsp; &amp;lt;mapper class=&quot;org.mybatis.builder.AuthorMapper&quot;/&amp;gt;&lt;/b&gt;&lt;/div&gt;&lt;div style=&quot;&quot;&gt;&lt;i&gt;&amp;nbsp; &amp;nbsp; &amp;lt;!-- 将包内的映射器接口全部注册为映射器 --&amp;gt;&lt;/i&gt;&lt;/div&gt;&lt;div style=&quot;&quot;&gt;&lt;font style=&quot;font-size: 12px;&quot;&gt;&lt;b&gt;&amp;nbsp; &amp;nbsp; &amp;lt;package name=&quot;org.mybatis.builder&quot;/&amp;gt;&lt;/b&gt;&lt;/font&gt;&lt;/div&gt;&lt;/div&gt;" style="text;html=1;align=left;verticalAlign=middle;resizable=0;points=[];autosize=1;strokeColor=none;fillColor=none;" vertex="1" parent="SBRpclSS-yPXKx1Pzvzx-33">
          <mxGeometry y="128" width="340" height="70" as="geometry" />
        </mxCell>
        <mxCell id="SBRpclSS-yPXKx1Pzvzx-16" value="&lt;font style=&quot;font-size: 11px;&quot;&gt;使用Mapper注解配置映射&lt;/font&gt;" style="rounded=1;whiteSpace=wrap;html=1;fillColor=#d5e8d4;strokeColor=none;" vertex="1" parent="SBRpclSS-yPXKx1Pzvzx-33">
          <mxGeometry x="19" y="1" width="175" height="89" as="geometry" />
        </mxCell>
        <mxCell id="SBRpclSS-yPXKx1Pzvzx-36" value="&lt;font face=&quot;Comic Sans MS&quot; style=&quot;font-size: 14px;&quot;&gt;properties/settings/typeAliases/plugins/objectFactory/&lt;br style=&quot;border-color: var(--border-color);&quot;&gt;objectWrapperFactory/reflectorFactory/environments/&lt;br style=&quot;border-color: var(--border-color);&quot;&gt;&lt;span style=&quot;border-color: var(--border-color);&quot;&gt;databaseIdProvider/typeHandlers/mappers&lt;/span&gt;&lt;/font&gt;" style="rounded=1;whiteSpace=wrap;html=1;fillColor=none;dashed=1;glass=0;shadow=0;strokeColor=#1C9935;strokeWidth=2;" vertex="1" parent="1">
          <mxGeometry x="-284" y="-252" width="415" height="111" as="geometry" />
        </mxCell>
        <mxCell id="SBRpclSS-yPXKx1Pzvzx-45" style="edgeStyle=orthogonalEdgeStyle;rounded=1;orthogonalLoop=1;jettySize=auto;html=1;entryX=0;entryY=0.5;entryDx=0;entryDy=0;curved=1;endArrow=open;endFill=0;" edge="1" parent="1" source="SBRpclSS-yPXKx1Pzvzx-30" target="SBRpclSS-yPXKx1Pzvzx-25">
          <mxGeometry relative="1" as="geometry" />
        </mxCell>
        <mxCell id="SBRpclSS-yPXKx1Pzvzx-46" style="edgeStyle=orthogonalEdgeStyle;rounded=1;orthogonalLoop=1;jettySize=auto;html=1;entryX=0.017;entryY=0.473;entryDx=0;entryDy=0;entryPerimeter=0;curved=1;endArrow=open;endFill=0;" edge="1" parent="1" source="SBRpclSS-yPXKx1Pzvzx-17" target="SBRpclSS-yPXKx1Pzvzx-22">
          <mxGeometry relative="1" as="geometry" />
        </mxCell>
        <mxCell id="SBRpclSS-yPXKx1Pzvzx-54" style="edgeStyle=orthogonalEdgeStyle;rounded=1;orthogonalLoop=1;jettySize=auto;html=1;curved=1;exitX=1.007;exitY=0.546;exitDx=0;exitDy=0;exitPerimeter=0;endArrow=open;endFill=0;" edge="1" parent="1" source="SBRpclSS-yPXKx1Pzvzx-51">
          <mxGeometry relative="1" as="geometry">
            <mxPoint x="1586" y="-23" as="targetPoint" />
          </mxGeometry>
        </mxCell>
        <mxCell id="SBRpclSS-yPXKx1Pzvzx-50" value="&lt;h6&gt;&lt;br&gt;&lt;/h6&gt;" style="text;html=1;align=center;verticalAlign=middle;resizable=0;points=[];autosize=1;strokeColor=none;fillColor=none;" vertex="1" parent="1">
          <mxGeometry x="1454" y="-171" width="18" height="64" as="geometry" />
        </mxCell>
        <mxCell id="SBRpclSS-yPXKx1Pzvzx-57" style="edgeStyle=orthogonalEdgeStyle;rounded=1;orthogonalLoop=1;jettySize=auto;html=1;curved=1;dashed=1;endArrow=diamond;endFill=1;" edge="1" parent="1" source="SBRpclSS-yPXKx1Pzvzx-51" target="SBRpclSS-yPXKx1Pzvzx-55">
          <mxGeometry relative="1" as="geometry" />
        </mxCell>
        <mxCell id="SBRpclSS-yPXKx1Pzvzx-51" value="&lt;p style=&quot;line-height: 160%;&quot;&gt;&lt;/p&gt;&lt;h6 style=&quot;border-color: var(--border-color);&quot;&gt;&lt;font face=&quot;Comic Sans MS&quot;&gt;XMLStatementBuilder&lt;/font&gt;&lt;/h6&gt;&lt;p&gt;&lt;/p&gt;" style="text;html=1;align=center;verticalAlign=middle;resizable=0;points=[];autosize=1;strokeColor=none;fillColor=none;" vertex="1" parent="1">
          <mxGeometry x="1296" y="-172" width="145" height="65" as="geometry" />
        </mxCell>
        <mxCell id="SBRpclSS-yPXKx1Pzvzx-55" value="解析每个select|insert|update|delete&lt;br&gt;标签中的定义" style="rounded=1;whiteSpace=wrap;html=1;fillColor=none;dashed=1;glass=0;shadow=0;strokeColor=#1C9935;strokeWidth=2;" vertex="1" parent="1">
          <mxGeometry x="1197" y="-324" width="182" height="91" as="geometry" />
        </mxCell>
      </root>
    </mxGraphModel>
  </diagram>
</mxfile>
